REM DIRINDEX 1\5,1\2\6,1\2\7,1\3\8,1\3\9,1\4\10,1\4\11,1\4\12
REM DIRNAME cjc026,folder01,folder02,folder03,folder04,folder05,folder06,folder07,folder08,folder09,folder10,folder11
TITLE ""
FILE "EJE_DB3000_5th_4B_25.mp3" MP3
  TRACK 01 AUDIO
    TITLE "0:"
    INDEX 01 00:00:00
  TRACK 02 AUDIO
    TITLE "10:cjc026_09126"
    INDEX 01 00:00:08
  TRACK 03 AUDIO
    TITLE "0:"
    INDEX 01 00:01:14
  TRACK 04 AUDIO
    TITLE "11:cjc026_09127"
    INDEX 01 00:01:49
  TRACK 05 AUDIO
    TITLE "0:"
    INDEX 01 00:03:04
  TRACK 06 AUDIO
    TITLE "12:cjc026_09128"
    INDEX 01 00:03:39
  TRACK 07 AUDIO
    TITLE "0:"
    INDEX 01 00:04:45
  TRACK 08 AUDIO
    TITLE "10:cjc026_09129"
    INDEX 01 00:05:05
  TRACK 09 AUDIO
    TITLE "0:"
    INDEX 01 00:06:33
  TRACK 10 AUDIO
    TITLE "11:cjc026_09130"
    INDEX 01 00:06:71
  TRACK 11 AUDIO
    TITLE "0:"
    INDEX 01 00:08:48
  TRACK 12 AUDIO
    TITLE "12:cjc026_09131"
    INDEX 01 00:09:10
  TRACK 13 AUDIO
    TITLE "0:"
    INDEX 01 00:10:35
  TRACK 14 AUDIO
    TITLE "10:cjc026_09132"
    INDEX 01 00:10:73
  TRACK 15 AUDIO
    TITLE "0:"
    INDEX 01 00:12:26
  TRACK 16 AUDIO
    TITLE "11:cjc026_09133"
    INDEX 01 00:12:63
  TRACK 17 AUDIO
    TITLE "0:"
    INDEX 01 00:14:38
  TRACK 18 AUDIO
    TITLE "12:cjc026_09134"
    INDEX 01 00:15:00
  TRACK 19 AUDIO
    TITLE "0:"
    INDEX 01 00:16:31
  TRACK 20 AUDIO
    TITLE "10:cjc026_09135"
    INDEX 01 00:16:63
  TRACK 21 AUDIO
    TITLE "0:"
    INDEX 01 00:18:21
  TRACK 22 AUDIO
    TITLE "11:cjc026_09136"
    INDEX 01 00:18:59
  TRACK 23 AUDIO
    TITLE "0:"
    INDEX 01 00:20:36
  TRACK 24 AUDIO
    TITLE "12:cjc026_09137"
    INDEX 01 00:20:71
  TRACK 25 AUDIO
    TITLE "0:"
    INDEX 01 00:22:29
  TRACK 26 AUDIO
    TITLE "10:cjc026_09138"
    INDEX 01 00:22:64
  TRACK 27 AUDIO
    TITLE "0:"
    INDEX 01 00:24:22
  TRACK 28 AUDIO
    TITLE "11:cjc026_09139"
    INDEX 01 00:24:60
  TRACK 29 AUDIO
    TITLE "0:"
    INDEX 01 00:26:37
  TRACK 30 AUDIO
    TITLE "12:cjc026_09140"
    INDEX 01 00:26:72
  TRACK 31 AUDIO
    TITLE "0:"
    INDEX 01 00:28:27
  TRACK 32 AUDIO
    TITLE "10:cjc026_09141"
    INDEX 01 00:28:68
  TRACK 33 AUDIO
    TITLE "0:"
    INDEX 01 00:30:04
  TRACK 34 AUDIO
    TITLE "11:cjc026_09142"
    INDEX 01 00:30:42
  TRACK 35 AUDIO
    TITLE "0:"
    INDEX 01 00:32:13
  TRACK 36 AUDIO
    TITLE "12:cjc026_09143"
    INDEX 01 00:32:51
  TRACK 37 AUDIO
    TITLE "0:"
    INDEX 01 00:33:63
  TRACK 38 AUDIO
    TITLE "10:cjc026_09144"
    INDEX 01 00:34:28
  TRACK 39 AUDIO
    TITLE "0:"
    INDEX 01 00:35:58
  TRACK 40 AUDIO
    TITLE "11:cjc026_09145"
    INDEX 01 00:36:21
  TRACK 41 AUDIO
    TITLE "0:"
    INDEX 01 00:37:68
  TRACK 42 AUDIO
    TITLE "12:cjc026_09146"
    INDEX 01 00:38:33
  TRACK 43 AUDIO
    TITLE "0:"
    INDEX 01 00:39:63
  TRACK 44 AUDIO
    TITLE "10:cjc026_09147"
    INDEX 01 00:40:26
  TRACK 45 AUDIO
    TITLE "0:"
    INDEX 01 00:41:62
  TRACK 46 AUDIO
    TITLE "11:cjc026_09148"
    INDEX 01 00:42:22
  TRACK 47 AUDIO
    TITLE "0:"
    INDEX 01 00:44:07
  TRACK 48 AUDIO
    TITLE "12:cjc026_09149"
    INDEX 01 00:44:45
  TRACK 49 AUDIO
    TITLE "0:"
    INDEX 01 00:46:06
  TRACK 50 AUDIO
    TITLE "10:cjc026_09150"
    INDEX 01 00:46:38
  TRACK 51 AUDIO
    TITLE "0:"
    INDEX 01 00:47:60
  TRACK 52 AUDIO
    TITLE "11:cjc026_09151"
    INDEX 01 00:48:15
  TRACK 53 AUDIO
    TITLE "0:"
    INDEX 01 00:50:03
  TRACK 54 AUDIO
    TITLE "12:cjc026_09152"
    INDEX 01 00:50:35
  TRACK 55 AUDIO
    TITLE "0:"
    INDEX 01 00:51:57
  TRACK 56 AUDIO
    TITLE "10:cjc026_09153"
    INDEX 01 00:52:12
  TRACK 57 AUDIO
    TITLE "0:"
    INDEX 01 00:53:21
  TRACK 58 AUDIO
    TITLE "11:cjc026_09154"
    INDEX 01 00:53:56
  TRACK 59 AUDIO
    TITLE "0:"
    INDEX 01 00:54:72
  TRACK 60 AUDIO
    TITLE "12:cjc026_09155"
    INDEX 01 00:55:33
  TRACK 61 AUDIO
    TITLE "0:"
    INDEX 01 00:56:39
  TRACK 62 AUDIO
    TITLE "10:cjc026_09156"
    INDEX 01 00:56:74
  TRACK 63 AUDIO
    TITLE "0:"
    INDEX 01 00:58:10
  TRACK 64 AUDIO
    TITLE "11:cjc026_09157"
    INDEX 01 00:58:51
  TRACK 65 AUDIO
    TITLE "0:"
    INDEX 01 00:59:73
  TRACK 66 AUDIO
    TITLE "12:cjc026_09158"
    INDEX 01 01:00:33
  TRACK 67 AUDIO
    TITLE "0:"
    INDEX 01 01:01:47
  TRACK 68 AUDIO
    TITLE "10:cjc026_09159"
    INDEX 01 01:02:10
  TRACK 69 AUDIO
    TITLE "0:"
    INDEX 01 01:03:43
  TRACK 70 AUDIO
    TITLE "11:cjc026_09160"
    INDEX 01 01:04:03
  TRACK 71 AUDIO
    TITLE "0:"
    INDEX 01 01:05:25
  TRACK 72 AUDIO
    TITLE "12:cjc026_09161"
    INDEX 01 01:05:60
  TRACK 73 AUDIO
    TITLE "0:"
    INDEX 01 01:07:18
  TRACK 74 AUDIO
    TITLE "10:cjc026_09162"
    INDEX 01 01:07:53
  TRACK 75 AUDIO
    TITLE "0:"
    INDEX 01 01:08:65
  TRACK 76 AUDIO
    TITLE "11:cjc026_09163"
    INDEX 01 01:09:27
  TRACK 77 AUDIO
    TITLE "0:"
    INDEX 01 01:11:07
  TRACK 78 AUDIO
    TITLE "12:cjc026_09164"
    INDEX 01 01:11:42
  TRACK 79 AUDIO
    TITLE "0:"
    INDEX 01 01:12:51
